<?xml version="1.0" encoding="UTF-8"?>
<svg id="OBJECTS" xmlns="http://www.w3.org/2000/svg" viewBox="0 0 600 300">
  <defs>
    <style>
      .cls-1 {
        fill: #39473b;
      }

      .cls-1, .cls-2 {
        stroke-width: 0px;
      }

      .cls-2 {
        fill: #bd973e;
      }
    </style>
  </defs>
  <g>
    <path class="cls-1" d="M331.02,169.73c3.69,1.64,6.52,3.99,8.49,7.05,1.97,3.06,2.95,6.7,2.95,10.91s-.98,7.78-2.95,10.86c-1.97,3.09-4.8,5.45-8.49,7.09-3.69,1.64-8.02,2.46-13,2.46h-12.95v16.56h-10.66v-57.4h23.61c4.97,0,9.31.82,13,2.46ZM328.1,196.13c2.4-1.97,3.61-4.78,3.61-8.45s-1.2-6.48-3.61-8.45c-2.4-1.97-5.93-2.95-10.58-2.95h-12.46v22.79h12.46c4.65,0,8.17-.98,10.58-2.95Z"/>
    <path class="cls-1" d="M400.59,167.27l-24.93,46.33c-2.19,4.1-4.8,7.17-7.83,9.23-3.03,2.05-6.33,3.07-9.88,3.07-2.84,0-5.66-.6-8.45-1.8l2.62-8.36c2.24.71,4.1,1.07,5.58,1.07,3.44,0,6.29-1.78,8.53-5.33l.9-1.39-22.88-42.8h11.4l16.97,33.7,17.47-33.7h10.49Z"/>
    <path class="cls-1" d="M464.05,215.65v21.24h-9.84v-12.22h-44.03v12.22h-9.92l.08-21.24h2.46c3.61-.16,6.13-2.83,7.58-8,1.45-5.16,2.34-12.56,2.66-22.18l.66-18.2h42.06v48.38h8.28ZM420.59,205.03c-.93,4.95-2.4,8.49-4.43,10.62h29.11v-39.36h-22.47l-.41,10.17c-.27,7.43-.87,13.63-1.8,18.57Z"/>
    <path class="cls-1" d="M512.5,211.38h-28.7l-5.66,13.28h-10.99l25.83-57.4h10.5l25.91,57.4h-11.15l-5.74-13.28ZM508.98,203.02l-10.82-25.09-10.74,25.09h21.56Z"/>
    <path class="cls-1" d="M576.95,176.29h-19.02v48.38h-10.58v-48.38h-18.94v-9.02h48.54v9.02Z"/>
  </g>
  <g>
    <path class="cls-1" d="M295.96,244.07v1.4h-6.14v11.43h-1.49v-12.84h7.63Z"/>
    <path class="cls-1" d="M304.75,261.73v-17.65h1.45v2.45h.17c.18-.38.42-.78.74-1.18s.73-.75,1.24-1.02,1.17-.42,1.95-.42c1.06,0,1.99.28,2.78.83.79.55,1.41,1.33,1.85,2.32.44,1,.66,2.15.66,3.47s-.22,2.49-.66,3.49c-.44,1-1.06,1.77-1.85,2.33s-1.72.84-2.76.84c-.77,0-1.42-.14-1.94-.42-.52-.28-.94-.62-1.26-1.03s-.57-.81-.74-1.2h-.13v7.2h-1.49ZM306.22,250.5c0,1.04.15,1.96.46,2.75.31.8.76,1.43,1.34,1.88.58.45,1.29.68,2.12.68s1.57-.24,2.16-.71c.59-.47,1.04-1.11,1.35-1.91.31-.8.46-1.7.46-2.7s-.15-1.87-.45-2.67c-.3-.79-.75-1.42-1.34-1.88s-1.31-.7-2.17-.7-1.55.22-2.13.67c-.59.45-1.03,1.07-1.33,1.85-.3.79-.45,1.7-.45,2.72Z"/>
    <path class="cls-1" d="M325.08,261.73c-.3,0-.57-.03-.83-.08-.26-.06-.46-.12-.61-.18l.4-1.31c.51.16.96.21,1.35.17s.75-.22,1.05-.53c.31-.32.58-.8.82-1.44l.47-1.3-4.72-12.96h1.61l3.81,10.87h.12l3.81-10.87h1.61l-5.43,14.87c-.23.62-.51,1.14-.84,1.55-.34.41-.72.73-1.16.93-.44.2-.93.31-1.47.31Z"/>
    <path class="cls-1" d="M342.55,256.91v-12.84h9.72v12.84h-1.5v-11.43h-6.73v11.43h-1.5Z"/>
    <path class="cls-1" d="M361.88,256.91v-12.84h9.72v12.84h-1.5v-11.43h-6.73v11.43h-1.5Z"/>
    <path class="cls-1" d="M384.78,257.2c-.78,0-1.48-.15-2.12-.45s-1.15-.74-1.53-1.32c-.38-.58-.57-1.28-.57-2.1,0-.64.12-1.17.36-1.61s.58-.79,1.02-1.07c.44-.28.96-.5,1.56-.66.6-.16,1.26-.29,1.99-.38.72-.09,1.33-.17,1.83-.23s.88-.17,1.14-.32c.26-.15.39-.38.39-.7v-.3c0-.87-.26-1.56-.78-2.07-.52-.51-1.27-.76-2.24-.76-.92,0-1.68.2-2.26.61-.58.41-.99.89-1.22,1.44l-1.41-.51c.29-.7.69-1.26,1.2-1.68.51-.42,1.09-.73,1.72-.91.63-.19,1.28-.28,1.93-.28.49,0,1,.06,1.53.19.53.13,1.03.35,1.48.66.46.31.83.75,1.11,1.31.29.56.43,1.27.43,2.13v8.72h-1.49v-2.03h-.09c-.18.38-.44.75-.79,1.1-.35.36-.79.65-1.32.88-.53.23-1.15.34-1.86.34ZM384.98,255.84c.79,0,1.48-.18,2.06-.53.58-.35,1.03-.82,1.34-1.4.31-.58.47-1.23.47-1.93v-1.86c-.11.11-.3.2-.56.29-.26.08-.56.16-.89.22-.34.07-.67.12-1.01.16-.33.04-.64.08-.9.12-.73.09-1.34.23-1.86.42-.51.19-.9.45-1.18.78-.27.33-.41.76-.41,1.27,0,.78.28,1.38.84,1.81s1.26.64,2.1.64Z"/>
    <path class="cls-1" d="M412.2,256.91v-12.84h1.49v5.77h1.39l4.77-5.77h1.92l-5.15,6.18,5.26,6.66h-1.92l-4.43-5.66h-1.85v5.66h-1.49Z"/>
    <path class="cls-1" d="M434.45,257.18c-1.11,0-2.09-.28-2.94-.84-.85-.56-1.51-1.34-1.99-2.34-.48-.99-.72-2.14-.72-3.45s.24-2.47.72-3.47c.48-1,1.14-1.78,1.99-2.34.85-.56,1.83-.84,2.94-.84s2.09.28,2.93.84c.85.56,1.51,1.34,1.99,2.34.48,1,.72,2.15.72,3.47s-.24,2.45-.72,3.45c-.48,1-1.14,1.77-1.99,2.34-.85.56-1.83.84-2.94.84ZM434.45,255.82c.89,0,1.65-.24,2.27-.72.62-.48,1.09-1.12,1.41-1.91s.48-1.67.48-2.63-.16-1.84-.48-2.64c-.32-.8-.79-1.44-1.41-1.93s-1.37-.73-2.27-.73-1.64.24-2.26.73-1.09,1.13-1.41,1.93c-.32.8-.48,1.68-.48,2.64s.16,1.84.48,2.63.79,1.43,1.41,1.91c.62.48,1.37.72,2.26.72Z"/>
    <path class="cls-1" d="M450.5,244.07v12.84h-1.49v-12.84h1.49ZM455.73,254.83l4.82-10.76h1.44l-5.67,12.84h-1.19l-5.61-12.84h1.42l4.78,10.76ZM460.95,256.91v-12.84h1.49v12.84h-1.49Z"/>
    <path class="cls-1" d="M472.06,256.91v-12.84h9.72v12.84h-1.5v-11.43h-6.73v11.43h-1.5Z"/>
    <path class="cls-1" d="M494.96,257.2c-.78,0-1.48-.15-2.12-.45s-1.15-.74-1.53-1.32c-.38-.58-.57-1.28-.57-2.1,0-.64.12-1.17.36-1.61s.58-.79,1.02-1.07c.44-.28.96-.5,1.56-.66.6-.16,1.26-.29,1.99-.38.72-.09,1.33-.17,1.83-.23s.88-.17,1.14-.32c.26-.15.39-.38.39-.7v-.3c0-.87-.26-1.56-.78-2.07-.52-.51-1.27-.76-2.24-.76-.92,0-1.68.2-2.26.61-.58.41-.99.89-1.22,1.44l-1.41-.51c.29-.7.69-1.26,1.2-1.68.51-.42,1.09-.73,1.72-.91.63-.19,1.28-.28,1.93-.28.49,0,1,.06,1.53.19.53.13,1.03.35,1.48.66.46.31.83.75,1.11,1.31.29.56.43,1.27.43,2.13v8.72h-1.49v-2.03h-.09c-.18.38-.44.75-.79,1.1-.35.36-.79.65-1.32.88-.53.23-1.15.34-1.86.34ZM495.16,255.84c.79,0,1.48-.18,2.06-.53.58-.35,1.03-.82,1.34-1.4.31-.58.47-1.23.47-1.93v-1.86c-.11.11-.3.2-.56.29-.26.08-.56.16-.89.22-.34.07-.67.12-1.01.16-.33.04-.64.08-.9.12-.73.09-1.34.23-1.86.42-.51.19-.9.45-1.18.78-.27.33-.41.76-.41,1.27,0,.78.28,1.38.84,1.81s1.26.64,2.1.64Z"/>
    <path class="cls-1" d="M511.61,244.07v12.84h-1.49v-12.84h1.49ZM518.79,249.8v1.4h-7.55v-1.4h7.55ZM519.88,244.07v12.84h-1.49v-12.84h1.49Z"/>
    <path class="cls-1" d="M530.97,254.8l6.78-10.72h1.78v12.84h-1.49v-10.72l-6.75,10.72h-1.81v-12.84h1.49v10.72Z"/>
    <path class="cls-1" d="M550.59,254.8l6.78-10.72h1.78v12.84h-1.49v-10.72l-6.75,10.72h-1.81v-12.84h1.49v10.72ZM555.67,239.8h1.4c0,.8-.26,1.44-.79,1.94-.53.5-1.25.74-2.15.74s-1.61-.25-2.13-.74c-.52-.5-.79-1.14-.79-1.94h1.4c0,.43.12.8.36,1.1.24.3.62.45,1.16.45s.92-.15,1.17-.45c.25-.3.37-.66.37-1.1Z"/>
  </g>
  <g>
    <rect class="cls-2" x="105.81" y="185.46" width="26.13" height="26.13"/>
    <rect class="cls-2" x="105.81" y="224.01" width="26.13" height="26.14"/>
    <rect class="cls-2" x="145.66" y="185.46" width="26.14" height="26.13"/>
    <rect class="cls-2" x="145.66" y="224.01" width="26.14" height="26.14"/>
  </g>
  <polygon class="cls-1" points="23.05 30.55 23.05 172.77 28.62 169.48 62.22 148.86 64.07 147.84 64.07 111.35 97.87 111.35 97.87 127.22 103.23 123.93 159.09 89.71 241.95 178.75 241.95 269.45 261.95 269.45 261.95 30.55 23.05 30.55"/>
</svg>